<?xml version="1.0" encoding="UTF-8" standalone="no"?>
<!-- Created with Inkscape (http://www.inkscape.org/) -->

<svg
   xmlns:dc="http://purl.org/dc/elements/1.1/"
   xmlns:cc="http://creativecommons.org/ns#"
   xmlns:rdf="http://www.w3.org/1999/02/22-rdf-syntax-ns#"
   xmlns:svg="http://www.w3.org/2000/svg"
   xmlns="http://www.w3.org/2000/svg"
   xmlns:sodipodi="http://sodipodi.sourceforge.net/DTD/sodipodi-0.dtd"
   xmlns:inkscape="http://www.inkscape.org/namespaces/inkscape"
   width="32px"
   height="32px"
   id="svg3135"
   version="1.1"
   inkscape:version="0.48.2 r9819"
   sodipodi:docname="New document 4">
  <defs
     id="defs3137" />
  <sodipodi:namedview
     id="base"
     pagecolor="#ffffff"
     bordercolor="#666666"
     borderopacity="1.0"
     inkscape:pageopacity="0.0"
     inkscape:pageshadow="2"
     inkscape:zoom="11.197802"
     inkscape:cx="3.3189399"
     inkscape:cy="15.642787"
     inkscape:current-layer="layer1"
     showgrid="true"
     inkscape:grid-bbox="true"
     inkscape:document-units="px"
     inkscape:window-width="1366"
     inkscape:window-height="715"
     inkscape:window-x="-8"
     inkscape:window-y="-8"
     inkscape:window-maximized="1" />
  <metadata
     id="metadata3140">
    <rdf:RDF>
      <cc:Work
         rdf:about="">
        <dc:format>image/svg+xml</dc:format>
        <dc:type
           rdf:resource="http://purl.org/dc/dcmitype/StillImage" />
        <dc:title></dc:title>
      </cc:Work>
    </rdf:RDF>
  </metadata>
  <g
     id="layer1"
     inkscape:label="Layer 1"
     inkscape:groupmode="layer">
    <path
       sodipodi:type="spiral"
       style="fill:#ffffff;stroke:#000000;stroke-width:1px;stroke-linecap:butt;stroke-linejoin:miter;stroke-opacity:1;opacity:0"
       id="path3259"
       sodipodi:cx="10.269873"
       sodipodi:cy="11.013739"
       sodipodi:expansion="1"
       sodipodi:revolution="3.3337715"
       sodipodi:radius="6.3599958"
       sodipodi:argument="-20.280735"
       sodipodi:t0="0"
       d="m 10.269873,11.013739 c 0.03993,-0.284162 0.402746,-0.08637 0.472296,0.06637 0.188474,0.413911 -0.222749,0.813166 -0.605041,0.87822 -0.6838322,0.116365 -1.2394082,-0.500954 -1.2841436,-1.14371 -0.065651,-0.9432692 0.781261,-1.673652 1.6823786,-1.6900667 1.201047,-0.021878 2.111028,1.0620937 2.09599,2.2210467 -0.01892,1.458424 -1.343125,2.549968 -2.7597153,2.501914 -1.7156812,-0.0582 -2.9898032,-1.624256 -2.9078376,-3.298384 0.096593,-1.9729022 1.9054475,-3.4301981 3.8370529,-3.3137611 2.230114,0.1344312 3.870967,2.1866802 3.719684,4.3757211 -0.171896,2.487328 -2.467941,4.311998 -4.9143893,4.125608 C 6.8616028,15.527598 4.852928,12.987474 5.0746157,10.283641 5.3207312,7.2818738 8.1051408,5.089057 11.066343,5.3461856 c 3.258995,0.2829868 5.636058,3.3118381 5.343379,6.5303954 -0.100086,1.100628 -0.498532,2.166258 -1.138867,3.066498"
       transform="matrix(0.55931183,0.82895734,-0.82895734,0.55931183,18.561261,-3.1924721)"
       inkscape:transform-center-x="0.4465162"
       inkscape:transform-center-y="1.3395486" />
    <rect
       style="fill:#ffffff;fill-opacity:1"
       id="rect3261"
       width="0.89303237"
       height="6.3405304"
       x="14.556429"
       y="17.354269" />
    <rect
       style="fill:#ffffff;fill-opacity:1"
       id="rect3263"
       width="0.89303237"
       height="0.89303237"
       x="14.556428"
       y="23.873404" />
  </g>
</svg>
